<svg width="14" height="14" viewBox="0 0 14 14" fill="none" xmlns="http://www.w3.org/2000/svg">
<path d="M7 1C8.5913 1 10.1174 1.63214 11.2426 2.75736C12.3679 3.88258 13 5.4087 13 7C13 8.5913 12.3679 10.1174 11.2426 11.2426C10.1174 12.3679 8.5913 13 7 13C5.4087 13 3.88258 12.3679 2.75736 11.2426C1.63214 10.1174 1 8.5913 1 7C1 5.4087 1.63214 3.88258 2.75736 2.75736C3.88258 1.63214 5.4087 1 7 1ZM7 6.27229L5.60629 4.87857C5.50978 4.78207 5.3789 4.72786 5.24243 4.72786C5.10596 4.72786 4.97507 4.78207 4.87857 4.87857C4.78207 4.97507 4.72786 5.10596 4.72786 5.24243C4.72786 5.3789 4.78207 5.50978 4.87857 5.60629L6.27229 7L4.87857 8.39371C4.83079 8.4415 4.79289 8.49822 4.76703 8.56065C4.74117 8.62308 4.72786 8.69 4.72786 8.75757C4.72786 8.82515 4.74117 8.89206 4.76703 8.95449C4.79289 9.01692 4.83079 9.07365 4.87857 9.12143C4.92635 9.16921 4.98308 9.20711 5.04551 9.23297C5.10794 9.25883 5.17485 9.27214 5.24243 9.27214C5.31 9.27214 5.37692 9.25883 5.43935 9.23297C5.50178 9.20711 5.5585 9.16921 5.60629 9.12143L7 7.72771L8.39371 9.12143C8.4415 9.16921 8.49822 9.20711 8.56065 9.23297C8.62308 9.25883 8.69 9.27214 8.75757 9.27214C8.82515 9.27214 8.89206 9.25883 8.95449 9.23297C9.01692 9.20711 9.07365 9.16921 9.12143 9.12143C9.16921 9.07365 9.20711 9.01692 9.23297 8.95449C9.25883 8.89206 9.27214 8.82515 9.27214 8.75757C9.27214 8.69 9.25883 8.62308 9.23297 8.56065C9.20711 8.49822 9.16921 8.4415 9.12143 8.39371L7.72771 7L9.12143 5.60629C9.16921 5.5585 9.20711 5.50178 9.23297 5.43935C9.25883 5.37692 9.27214 5.31 9.27214 5.24243C9.27214 5.17485 9.25883 5.10794 9.23297 5.04551C9.20711 4.98308 9.16921 4.92635 9.12143 4.87857C9.07365 4.83079 9.01692 4.79289 8.95449 4.76703C8.89206 4.74117 8.82515 4.72786 8.75757 4.72786C8.69 4.72786 8.62308 4.74117 8.56065 4.76703C8.49822 4.79289 8.4415 4.83079 8.39371 4.87857L7 6.27229Z" fill="#4E67BE"/>
<circle cx="7" cy="7" r="6" fill="#4E67BE"/>
<path d="M9.57234 4.0897L6.11789 8.30139C6.09466 8.32982 6.06706 8.35238 6.03667 8.36777C6.00628 8.38316 5.97369 8.39109 5.94078 8.39109C5.90787 8.39109 5.87528 8.38316 5.84489 8.36777C5.8145 8.35238 5.78689 8.32982 5.76367 8.30139L4.42779 6.67103C4.40456 6.6426 4.37696 6.62004 4.34657 6.60465C4.31617 6.58925 4.28359 6.58133 4.25068 6.58133C4.21777 6.58133 4.18518 6.58925 4.15479 6.60465C4.12439 6.62004 4.09679 6.6426 4.07357 6.67103C4.05025 6.69935 4.03175 6.733 4.01912 6.77006C4.0065 6.80712 4 6.84685 4 6.88698C4 6.9271 4.0065 6.96684 4.01912 7.0039C4.03175 7.04095 4.05025 7.07461 4.07357 7.10293L5.40995 8.73207C5.55093 8.90364 5.74197 9 5.94115 9C6.14034 9 6.33138 8.90364 6.47236 8.73207L9.92656 4.52129C9.94984 4.49298 9.96831 4.45934 9.98091 4.42231C9.99351 4.38528 10 4.34559 10 4.3055C10 4.2654 9.99351 4.22571 9.98091 4.18868C9.96831 4.15165 9.94984 4.11801 9.92656 4.0897C9.90333 4.06127 9.87573 4.03871 9.84534 4.02332C9.81495 4.00792 9.78236 4 9.74945 4C9.71654 4 9.68395 4.00792 9.65356 4.02332C9.62317 4.03871 9.59557 4.06127 9.57234 4.0897Z" fill="white"/>
</svg>
