<svg width="27" height="27" viewBox="0 0 27 27" fill="none" xmlns="http://www.w3.org/2000/svg">
<path d="M23.4394 25.9365H2.80548C2.23635 25.9365 1.65992 25.6491 1.21515 25.1737C0.77029 24.6983 0.5 24.0792 0.5 23.4888C0.5 21.9745 1.22018 20.0904 3.14251 18.5733C5.06721 17.0543 8.22717 15.8826 13.1225 15.8826C22.6148 15.8826 25.6889 20.6596 25.6889 23.4888C25.6889 24.0857 25.4275 24.706 24.9971 25.1787C24.5671 25.6511 24.0064 25.9365 23.4394 25.9365Z" fill="#AFABD6" stroke="#4733CC"/>
<path d="M12.6441 18.2808C14.3189 17.4287 16.1866 16.8118 17.6876 16.607C16.8746 16.8424 15.9108 17.1624 14.9254 17.5648C13.7635 18.0393 12.5577 18.6341 11.5312 19.3489C10.622 19.982 9.82045 20.7321 9.33133 21.6065C9.15726 21.5705 8.98511 21.5079 8.83231 21.4379C8.82336 21.4339 8.81454 21.4298 8.80584 21.4257C9.03341 20.9752 9.43716 20.4929 10.0006 20.0035C10.7106 19.3869 11.6311 18.7963 12.6441 18.2808Z" fill="#4733CC" stroke="#4733CC"/>
<path d="M13.3593 22.3836C13.3593 22.4486 13.327 22.5667 13.1465 22.7308C12.9659 22.895 12.6767 23.0658 12.2769 23.2196C11.4806 23.5259 10.3467 23.7259 9.06932 23.7259C7.79192 23.7259 6.65802 23.5259 5.86175 23.2196C5.46195 23.0658 5.17272 22.895 4.99211 22.7308C4.81164 22.5667 4.7793 22.4486 4.7793 22.3836C4.7793 22.3185 4.81164 22.2005 4.99211 22.0364C5.17272 21.8722 5.46195 21.7013 5.86175 21.5475C6.65802 21.2413 7.79192 21.0413 9.06932 21.0413C10.3467 21.0413 11.4806 21.2413 12.2769 21.5475C12.6767 21.7013 12.9659 21.8722 13.1465 22.0364C13.327 22.2005 13.3593 22.3185 13.3593 22.3836Z" fill="#120094" stroke="#4733CC"/>
<path d="M7.72705 22.0148V3.35474H8.2009V22.0148C8.2009 22.0478 8.19459 22.0626 8.19254 22.0669C8.19048 22.0711 8.18684 22.077 8.17653 22.0851C8.15241 22.104 8.08591 22.1368 7.96398 22.1368C7.84204 22.1368 7.77555 22.104 7.75142 22.0851C7.74112 22.077 7.73748 22.0711 7.73541 22.0669C7.73336 22.0626 7.72705 22.0478 7.72705 22.0148Z" fill="#7F71D8" stroke="#1F08C9"/>
<path d="M16.8108 4.16453L16.8106 4.16458L9.83487 6.65613L9.83469 6.6562C9.19369 6.88544 8.67605 6.79664 8.33048 6.55312C7.98486 6.30957 7.72705 5.85185 7.72705 5.1712V2.11811C7.72705 1.43747 7.98486 0.979707 8.33053 0.736054C8.67617 0.492418 9.19388 0.403512 9.83487 0.632434C9.83488 0.632435 9.83488 0.632437 9.83489 0.632438L16.8106 3.12396C17.1577 3.248 17.3797 3.37904 17.5059 3.49073C17.5674 3.54518 17.5977 3.58762 17.6118 3.61361C17.6185 3.62619 17.6213 3.63451 17.6224 3.6387C17.6235 3.64268 17.6234 3.64435 17.6234 3.64456V3.64458C17.6234 3.64485 17.6234 3.64653 17.6224 3.6504C17.6213 3.65457 17.6185 3.66287 17.6118 3.67542C17.5978 3.70137 17.5675 3.74376 17.506 3.79816C17.3798 3.90975 17.1579 4.04067 16.8108 4.16453Z" fill="white" stroke="#4733CC"/>
</svg>
