<svg width="24" height="24" viewBox="0 0 24 24" fill="none" xmlns="http://www.w3.org/2000/svg">
<path d="M12.8571 10H7.14286C6.51257 10 6 10.5126 6 11.1429V16.8571C6 17.4874 6.51257 18 7.14286 18H12.8571C13.4874 18 14 17.4874 14 16.8571V11.1429C14 10.5126 13.4874 10 12.8571 10Z" fill="white"/>
<path d="M16.8571 6H11.1429C10.8398 6 10.5491 6.12041 10.3347 6.33474C10.1204 6.54906 10 6.83975 10 7.14286V8.28571H14.5714C14.8745 8.28571 15.1652 8.40612 15.3796 8.62045C15.5939 8.83478 15.7143 9.12547 15.7143 9.42857V14H16.8571C17.1602 14 17.4509 13.8796 17.6653 13.6653C17.8796 13.4509 18 13.1602 18 12.8571V7.14286C18 6.83975 17.8796 6.54906 17.6653 6.33474C17.4509 6.12041 17.1602 6 16.8571 6Z" fill="white"/>
</svg>
