<svg width="110" height="32" viewBox="0 0 110 32" fill="none" xmlns="http://www.w3.org/2000/svg">
<rect width="110" height="32" rx="16" fill="#F3F3FB"/>
<path d="M41.8516 14.51V16.232H43.3076V14.51H41.8516ZM42.5936 10.506C39.7236 10.506 38.0436 11.276 38.0436 12.704C38.0436 14.118 39.7236 14.902 42.5936 14.902C45.4636 14.902 47.1576 14.118 47.1576 12.704C47.1576 11.276 45.4636 10.506 42.5936 10.506ZM42.5936 11.598C44.5816 11.598 45.6316 11.976 45.6316 12.704C45.6316 13.432 44.5816 13.81 42.5936 13.81C40.6196 13.81 39.5556 13.432 39.5556 12.704C39.5556 11.976 40.6196 11.598 42.5936 11.598ZM36.8116 15.742V16.918H48.3756V15.742H36.8116ZM38.1836 17.814V18.92H45.4916V19.83H38.1976V22.252H39.6536V20.88H46.9336V17.814H38.1836ZM38.1976 21.916V23.05H47.2976V21.916H38.1976ZM58.7905 10.352V23.176H60.2605V10.352H58.7905ZM50.4185 18.934V20.138H51.5105C53.7645 20.138 55.6685 20.054 57.8805 19.676L57.7265 18.486C55.5705 18.85 53.7085 18.934 51.5105 18.934H50.4185ZM50.3905 11.5V12.69H54.8705V15.07H50.4185V19.382H51.9025V16.246H56.3545V11.5H50.3905ZM71.6695 10.366V23.162H73.1395V10.366H71.6695ZM67.9175 11.724V11.976C67.9175 15.392 66.3635 17.926 62.6815 19.704L63.4515 20.88C67.8475 18.738 69.3595 15.518 69.3595 11.724H67.9175ZM63.3115 11.724V12.9H68.5755V11.724H63.3115Z" fill="#7F71D8"/>
</svg>
