<svg width="76" height="30" viewBox="0 0 76 30" fill="none" xmlns="http://www.w3.org/2000/svg">
<rect width="30" height="30" fill="#FFCFCF" fill-opacity="0.3"/>
<rect x="1" y="1" width="28" height="28" stroke="#FF9393" stroke-opacity="0.5" stroke-width="2"/>
<path d="M46.8 19.368V20.472H59.904V19.368H46.8ZM52.656 16.264V19.832H53.984V16.264H52.656ZM48.384 8.856V9.928H56.976V12.168H48.432V16.136H49.744V13.24H58.288V8.856H48.384ZM48.432 15.576V16.664H58.624V15.576H48.432ZM62.8948 9.224V10.328H72.2068V9.224H62.8948ZM61.5188 19.128V20.232H74.5908V19.128H61.5188ZM66.5908 13.96V19.672H67.9188V13.96H66.5908ZM71.7108 9.224V10.664C71.7108 12.392 71.7108 14.424 71.1668 17.192L72.4948 17.368C73.0228 14.44 73.0228 12.456 73.0228 10.664V9.224H71.7108Z" fill="#4733CC"/>
</svg>
