<svg width="65" height="66" viewBox="0 0 65 66" fill="none" xmlns="http://www.w3.org/2000/svg">
<path d="M58.0181 64.9364H6.94422C5.28795 64.9364 3.67684 64.1054 2.46916 62.8147C1.26141 61.5239 0.5 59.8178 0.5 58.1402C0.5 54.1575 2.39293 49.2838 7.32147 45.3941C12.2524 41.5026 20.252 38.5754 32.4811 38.5754C56.2118 38.5754 64.3237 50.5765 64.3237 58.1402C64.3237 59.8243 63.5918 61.5317 62.4192 62.8198C61.2469 64.1075 59.6722 64.9364 58.0181 64.9364Z" fill="#AFABD6" stroke="#4733CC"/>
<path d="M48.0884 40.7924C47.9946 40.8106 47.8973 40.83 47.797 40.8507C47.0645 41.0014 46.1199 41.2257 45.0292 41.5219C42.8481 42.1141 40.0708 42.9968 37.2224 44.1601C34.376 45.3225 31.4446 46.7709 28.9637 48.4985C26.5978 50.146 24.6035 52.0737 23.5066 54.285C22.8011 54.2279 22.1084 53.988 21.5549 53.7348C21.2658 53.6026 21.0224 53.4703 20.8448 53.3666C21.3857 51.9204 22.5858 50.4193 24.2698 48.9566C26.0845 47.3805 28.4174 45.8869 30.9623 44.592C36.0361 42.0105 41.8651 40.2623 45.977 40.1883C46.7026 40.3785 47.4082 40.5789 48.0884 40.7924Z" fill="#4733CC" stroke="#4733CC"/>
<path d="M33.8051 55.4044C33.8051 55.8447 33.5751 56.3202 33.037 56.8095C32.4988 57.2989 31.6922 57.7626 30.653 58.1623C28.578 58.9603 25.6775 59.4646 22.4487 59.4646C19.22 59.4646 16.3195 58.9603 14.2444 58.1623C13.2053 57.7626 12.3986 57.2989 11.8604 56.8095C11.3224 56.3202 11.0923 55.8447 11.0923 55.4044C11.0923 54.9641 11.3224 54.4886 11.8604 53.9993C12.3986 53.5099 13.2053 53.0462 14.2444 52.6466C16.3195 51.8485 19.22 51.3442 22.4487 51.3442C25.6775 51.3442 28.578 51.8485 30.653 52.6466C31.6922 53.0462 32.4988 53.5099 33.037 53.9993C33.5751 54.4886 33.8051 54.9641 33.8051 55.4044Z" fill="#120094" stroke="#4733CC"/>
<path d="M18.3887 54.4921V7.56641H21.0368V54.4921C21.0368 54.8458 20.9009 55.0844 20.6939 55.2466C20.473 55.4198 20.1347 55.5316 19.7127 55.5316C19.2908 55.5316 18.9525 55.4198 18.7316 55.2466C18.5246 55.0844 18.3887 54.8458 18.3887 54.4921Z" fill="#7F71D8" stroke="#1F08C9"/>
<path d="M41.8584 11.003L41.8585 11.0029C42.7685 10.6782 43.4126 10.3144 43.8202 9.95379C44.2271 9.59378 44.3598 9.27475 44.3598 9.02114C44.3598 8.7675 44.2271 8.44832 43.8201 8.08805C43.4125 7.72726 42.7683 7.3631 41.8584 7.03795V11.003ZM41.8584 11.003L24.5917 17.1701L24.5916 17.1702C22.8243 17.8022 21.2828 17.59 20.195 16.8235C19.1072 16.0569 18.3887 14.6764 18.3887 12.7999V5.24281C18.3887 3.36633 19.1072 1.98585 20.1951 1.21901C21.283 0.452188 22.8245 0.239619 24.5917 0.870783C24.5918 0.870784 24.5918 0.870786 24.5918 0.870787L41.8583 7.03793L41.8584 11.003Z" fill="white" stroke="#4733CC"/>
</svg>
