<svg width="110" height="32" viewBox="0 0 110 32" fill="none" xmlns="http://www.w3.org/2000/svg">
<rect width="110" height="32" rx="5" fill="#4733CC"/>
<path d="M30.5582 11.57V20.026H36.5642V11.57H30.5582ZM35.1362 12.732V18.85H32.0002V12.732H35.1362ZM38.9442 10.352V23.176H40.4142V10.352H38.9442ZM49.5271 12.158V13.348H52.2571V12.158H49.5271ZM49.5271 14.706V15.896H52.2571V14.706H49.5271ZM45.8451 11.094V12.648C45.8451 14.594 44.7391 16.414 42.7371 17.156L43.5211 18.304C45.7751 17.422 47.0211 15.224 47.0211 12.648V11.094H45.8451ZM46.1251 11.094V12.648C46.1251 15.098 47.3571 17.254 49.4851 18.122L50.2971 16.974C48.3791 16.232 47.3151 14.468 47.3151 12.648V11.094H46.1251ZM51.8931 10.38V19.886H53.3631V10.38H51.8931ZM45.0331 21.72V22.91H53.6571V21.72H45.0331ZM45.0331 18.962V22.42H46.5031V18.962H45.0331ZM64.1 10.366V23.162H65.556V10.366H64.1ZM65.22 15.504V16.722H67.544V15.504H65.22ZM55.574 12.34V13.516H63.078V12.34H55.574ZM59.368 14.44C57.534 14.44 56.19 15.672 56.19 17.422C56.19 19.186 57.534 20.418 59.368 20.418C61.188 20.418 62.532 19.186 62.532 17.422C62.532 15.672 61.188 14.44 59.368 14.44ZM59.368 15.644C60.39 15.644 61.132 16.344 61.132 17.422C61.132 18.5 60.39 19.214 59.368 19.214C58.332 19.214 57.59 18.5 57.59 17.422C57.59 16.344 58.332 15.644 59.368 15.644ZM58.612 10.548V12.83H60.082V10.548H58.612ZM77.6089 10.366V23.162H79.0789V10.366H77.6089ZM73.8569 11.724V11.976C73.8569 15.392 72.3029 17.926 68.6209 19.704L69.3909 20.88C73.7869 18.738 75.2989 15.518 75.2989 11.724H73.8569ZM69.2509 11.724V12.9H74.5149V11.724H69.2509Z" fill="white"/>
</svg>
