<svg width="54" height="26" viewBox="0 0 54 26" fill="none" xmlns="http://www.w3.org/2000/svg">
<rect width="54" height="26" rx="13" fill="#F3F3FB"/>
<path d="M14.6556 14.892C12.4476 14.892 11.0916 15.636 11.0916 16.908C11.0916 18.18 12.4476 18.924 14.6556 18.924C16.8636 18.924 18.2196 18.18 18.2196 16.908C18.2196 15.636 16.8636 14.892 14.6556 14.892ZM14.6556 15.696C16.2636 15.696 17.2476 16.14 17.2476 16.908C17.2476 17.688 16.2636 18.132 14.6556 18.132C13.0476 18.132 12.0636 17.688 12.0636 16.908C12.0636 16.14 13.0476 15.696 14.6556 15.696ZM17.1156 8.088V14.604H18.1116V8.088H17.1156ZM17.8356 10.812V11.652H19.7196V10.812H17.8356ZM10.1436 8.772V13.776H15.1596V8.772H14.1876V10.392H11.1276V8.772H10.1436ZM11.1276 11.184H14.1876V12.972H11.1276V11.184ZM25.6903 8.76V10.212C25.6903 11.436 24.8383 12.84 23.4103 13.464L23.9503 14.244C25.5463 13.536 26.4823 11.832 26.4823 10.212V8.76H25.6903ZM25.8463 8.76V10.212C25.8463 11.808 26.7463 13.308 28.3063 13.932L28.8463 13.176C27.4543 12.636 26.6383 11.412 26.6383 10.212V8.76H25.8463ZM31.6063 8.1V14.784H32.5543V8.1H31.6063ZM29.8783 10.992V11.808H31.9303V10.992H29.8783ZM29.2783 8.304V14.436H30.2263V8.304H29.2783ZM28.9903 15.024C26.7463 15.024 25.3783 15.744 25.3783 16.98C25.3783 18.204 26.7463 18.912 28.9903 18.912C31.2223 18.912 32.6143 18.204 32.6143 16.98C32.6143 15.744 31.2223 15.024 28.9903 15.024ZM28.9903 15.804C30.6223 15.804 31.6183 16.236 31.6183 16.98C31.6183 17.712 30.6223 18.144 28.9903 18.144C27.3583 18.144 26.3503 17.712 26.3503 16.98C26.3503 16.236 27.3583 15.804 28.9903 15.804ZM37.1853 8.7V9.816C37.1853 11.472 36.1053 12.924 34.4493 13.512L34.9653 14.328C36.8253 13.632 38.0133 11.916 38.0133 9.816V8.7H37.1853ZM37.3653 8.7V9.78C37.3653 11.748 38.5293 13.344 40.2813 14.004L40.8213 13.224C39.2373 12.672 38.1813 11.316 38.1813 9.78V8.7H37.3653ZM42.3813 8.088V14.508H43.3773V8.088H42.3813ZM39.8133 14.82C37.5693 14.82 36.1893 15.576 36.1893 16.872C36.1893 18.168 37.5693 18.912 39.8133 18.912C42.0453 18.912 43.4253 18.168 43.4253 16.872C43.4253 15.576 42.0453 14.82 39.8133 14.82ZM39.8133 15.612C41.4453 15.612 42.4413 16.08 42.4413 16.872C42.4413 17.664 41.4453 18.132 39.8133 18.132C38.1813 18.132 37.1853 17.664 37.1853 16.872C37.1853 16.08 38.1813 15.612 39.8133 15.612ZM40.0293 10.38V11.208H42.5973V10.38H40.0293Z" fill="#7F71D8"/>
</svg>
