<svg width="54" height="26" viewBox="0 0 54 26" fill="none" xmlns="http://www.w3.org/2000/svg">
<rect width="54" height="26" rx="13" fill="#F3F3FB"/>
<path d="M14.6556 14.892C12.4476 14.892 11.0916 15.636 11.0916 16.908C11.0916 18.18 12.4476 18.924 14.6556 18.924C16.8636 18.924 18.2196 18.18 18.2196 16.908C18.2196 15.636 16.8636 14.892 14.6556 14.892ZM14.6556 15.696C16.2636 15.696 17.2476 16.14 17.2476 16.908C17.2476 17.688 16.2636 18.132 14.6556 18.132C13.0476 18.132 12.0636 17.688 12.0636 16.908C12.0636 16.14 13.0476 15.696 14.6556 15.696ZM17.1156 8.088V14.604H18.1116V8.088H17.1156ZM17.8356 10.812V11.652H19.7196V10.812H17.8356ZM10.1436 8.772V13.776H15.1596V8.772H14.1876V10.392H11.1276V8.772H10.1436ZM11.1276 11.184H14.1876V12.972H11.1276V11.184ZM26.1223 9.864V10.332C26.1223 11.76 25.0303 13.02 23.4223 13.512L23.9023 14.292C25.7143 13.704 26.9383 12.192 26.9383 10.332V9.864H26.1223ZM26.3023 9.864V10.332C26.3023 12.072 27.4903 13.536 29.3023 14.1L29.7703 13.308C28.1743 12.84 27.1183 11.652 27.1183 10.332V9.864H26.3023ZM23.7223 9.36V10.164H29.5063V9.36H23.7223ZM26.1223 8.04V9.684H27.1183V8.04H26.1223ZM30.8383 8.088V14.508H31.8343V8.088H30.8383ZM31.5583 10.824V11.664H33.4423V10.824H31.5583ZM25.0183 15.012V18.792H31.8343V15.012H25.0183ZM30.8623 15.804V17.988H25.9903V15.804H30.8623ZM41.7933 8.076V18.936H42.8013V8.076H41.7933ZM42.5253 12.48V13.308H44.5293V12.48H42.5253ZM39.0213 9.252V9.408C39.0213 12.276 37.5213 14.592 34.5213 16.116L35.0733 16.884C38.5773 15.12 39.9933 12.336 39.9933 9.252H39.0213ZM35.0253 9.252V10.068H39.5373V9.252H35.0253Z" fill="#7F71D8"/>
</svg>
