<svg width="24" height="24" viewBox="0 0 24 24" fill="none" xmlns="http://www.w3.org/2000/svg">
<path d="M12 6C8.682 6 6 8.7 6 12C6 15.3 8.7 18 12 18C15.3 18 18 15.3 18 12C18 8.7 15.3 6 12 6ZM12 16.8C9.348 16.8 7.2 14.652 7.2 12C7.2 9.348 9.348 7.2 12 7.2C14.652 7.2 16.8 9.348 16.8 12C16.8 14.652 14.652 16.8 12 16.8ZM9.6 13.2L9 9.6L10.8 10.8L12 9L13.2 10.8L15 9.6L14.4 13.2H9.6ZM9.936 14.4C9.732 14.4 9.6 14.268 9.6 14.064V13.8H14.4V14.064C14.4 14.268 14.268 14.4 14.064 14.4H9.936Z" fill="#4733CC"/>
</svg>
