<svg width="14" height="14" viewBox="0 0 14 14" fill="none" xmlns="http://www.w3.org/2000/svg">
<path d="M7 1C8.5913 1 10.1174 1.63214 11.2426 2.75736C12.3679 3.88258 13 5.4087 13 7C13 8.5913 12.3679 10.1174 11.2426 11.2426C10.1174 12.3679 8.5913 13 7 13C5.4087 13 3.88258 12.3679 2.75736 11.2426C1.63214 10.1174 1 8.5913 1 7C1 5.4087 1.63214 3.88258 2.75736 2.75736C3.88258 1.63214 5.4087 1 7 1ZM7 6.27229L5.60629 4.87857C5.50978 4.78207 5.3789 4.72786 5.24243 4.72786C5.10596 4.72786 4.97507 4.78207 4.87857 4.87857C4.78207 4.97507 4.72786 5.10596 4.72786 5.24243C4.72786 5.3789 4.78207 5.50978 4.87857 5.60629L6.27229 7L4.87857 8.39371C4.83079 8.4415 4.79289 8.49822 4.76703 8.56065C4.74117 8.62308 4.72786 8.69 4.72786 8.75757C4.72786 8.82515 4.74117 8.89206 4.76703 8.95449C4.79289 9.01692 4.83079 9.07365 4.87857 9.12143C4.92635 9.16921 4.98308 9.20711 5.04551 9.23297C5.10794 9.25883 5.17485 9.27214 5.24243 9.27214C5.31 9.27214 5.37692 9.25883 5.43935 9.23297C5.50178 9.20711 5.5585 9.16921 5.60629 9.12143L7 7.72771L8.39371 9.12143C8.4415 9.16921 8.49822 9.20711 8.56065 9.23297C8.62308 9.25883 8.69 9.27214 8.75757 9.27214C8.82515 9.27214 8.89206 9.25883 8.95449 9.23297C9.01692 9.20711 9.07365 9.16921 9.12143 9.12143C9.16921 9.07365 9.20711 9.01692 9.23297 8.95449C9.25883 8.89206 9.27214 8.82515 9.27214 8.75757C9.27214 8.69 9.25883 8.62308 9.23297 8.56065C9.20711 8.49822 9.16921 8.4415 9.12143 8.39371L7.72771 7L9.12143 5.60629C9.16921 5.5585 9.20711 5.50178 9.23297 5.43935C9.25883 5.37692 9.27214 5.31 9.27214 5.24243C9.27214 5.17485 9.25883 5.10794 9.23297 5.04551C9.20711 4.98308 9.16921 4.92635 9.12143 4.87857C9.07365 4.83079 9.01692 4.79289 8.95449 4.76703C8.89206 4.74117 8.82515 4.72786 8.75757 4.72786C8.69 4.72786 8.62308 4.74117 8.56065 4.76703C8.49822 4.79289 8.4415 4.83079 8.39371 4.87857L7 6.27229Z" fill="#BE4E4E"/>
</svg>
