<svg width="63" height="15" viewBox="0 0 63 15" fill="none" xmlns="http://www.w3.org/2000/svg">
<path d="M5.48 14.252C8.18 14.252 10.232 12.794 10.232 8.564V0.805999H8.63V8.618C8.63 11.786 7.226 12.776 5.48 12.776C3.752 12.776 2.402 11.786 2.402 8.618V0.805999H0.746V8.564C0.746 12.794 2.798 14.252 5.48 14.252ZM13.7727 14H17.9847C20.9187 14 22.9707 12.722 22.9707 10.148C22.9707 8.348 21.8727 7.286 20.2887 6.98V6.908C21.5307 6.494 22.2147 5.342 22.2147 4.046C22.2147 1.724 20.3607 0.805999 17.6787 0.805999H13.7727V14ZM15.4467 6.422V2.12H17.4807C19.5327 2.12 20.5767 2.696 20.5767 4.244C20.5767 5.594 19.6587 6.422 17.3907 6.422H15.4467ZM15.4467 12.686V7.7H17.7507C20.0547 7.7 21.3507 8.456 21.3507 10.094C21.3507 11.876 20.0007 12.686 17.7507 12.686H15.4467Z" fill="black"/>
<path d="M25.6027 14H33.0367V12.596H27.2767V0.805999H25.6027V14ZM35.3762 14H37.0502V0.805999H35.3762V14ZM40.6496 14H42.2336V7.088C42.2336 5.684 42.1076 4.298 42.0176 2.966H42.1076L43.5296 5.684L48.3176 14H50.0456V0.805999H48.4436V7.664C48.4436 9.032 48.5696 10.526 48.6776 11.858H48.5876L47.1656 9.122L42.3596 0.805999H40.6496V14ZM58.8414 14.252C60.6234 14.252 62.0634 13.604 62.9274 12.722V7.178H58.5894V8.564H61.3794V12.02C60.8754 12.488 59.9574 12.776 59.0034 12.776C56.1774 12.776 54.6114 10.706 54.6114 7.376C54.6114 4.082 56.3214 2.03 58.9854 2.03C60.3174 2.03 61.1634 2.588 61.8294 3.272L62.7474 2.192C61.9734 1.4 60.7674 0.571999 58.9494 0.571999C55.4574 0.571999 52.9014 3.164 52.9014 7.412C52.9014 11.696 55.3854 14.252 58.8414 14.252Z" fill="#4733CC"/>
</svg>
